# xmcd
#
# Track frame offsets:
#	150
#	16779
#	31084
#	48234
#	62592
#	77812
#	93007
#	106073
#	121827
#	137801
#	152237
#	168836
#	185272
#	204390
#	218984
#	233861
#	251350
#	265922
#	283424
#	299342
#
# Disc length: 4228 seconds
#
# Revision: 1
# Processed by: cddbd v1.5.1PL0 Copyright (c) Steve Scherf et al.
# Submitted via: audiograbber 1.83.01
#
DISCID=0d108214
DTITLE=Various Artist - RC41
DYEAR=1997
DGENRE=Country
TTITLE0=Trace Adkins - (This Ain't) No Thinkin' Thing
TTITLE1=Lonestar - Heartbroke Every Day
TTITLE2=Kathy Mattea - 455 Rocket
TTITLE3=Alan Jackson - Everything I Love
TTITLE4=Tracy Byrd - Don't Take Her She's All I Got
TTITLE5=Alabama - Sad Looking Moon
TTITLE6=Clay Walker - Rumor Has It
TTITLE7=Lorrie Morgan - Good As I Was To You
TTITLE8=Kenny Chesney - When I Close My Eyes
TTITLE9=Bryan White - Sittin' On Go
TTITLE10=Ricochet - Ease My Troubled Mind
TTITLE11=George Strait - One Night At A Time
TTITLE12=John Michael Montgomery - I Miss You A Little
TTITLE13=Terri Clark - Emotional Girl
TTITLE14=Tracy Lawrence - Better Man Better Off
TTITLE15=Collin Raye - On The Verge
TTITLE16=Kevin Sharp - She's Sure Taking It Well
TTITLE17=Mila Mason - Dark Horse
TTITLE18=Buffalo Club - If She Don't Love You
TTITLE19=David Kersh - Another You
EXTD=
EXTT0=
EXTT1=
EXTT2=
EXTT3=
EXTT4=
EXTT5=
EXTT6=
EXTT7=
EXTT8=
EXTT9=
EXTT10=
EXTT11=
EXTT12=
EXTT13=
EXTT14=
EXTT15=
EXTT16=
EXTT17=
EXTT18=
EXTT19=
PLAYORDER=
